<svg width="105" height="22" viewBox="0 0 105 22" fill="none" xmlns="http://www.w3.org/2000/svg">
    <path d="M27.5 10.958h4.931v2.309H27.5v-2.309zM44.713 13.23v4.497h-3.087V4.273h4.694c.937 0 1.74.114 2.41.341.676.222 1.23.53 1.662.924.439.394.761.859.968 1.394.207.536.31 1.115.31 1.736 0 .671-.106 1.287-.319 1.847a3.709 3.709 0 0 1-.977 1.44c-.438.4-.995.715-1.671.943-.67.221-1.464.332-2.383.332h-1.607zm0-2.355h1.607c.803 0 1.382-.194 1.735-.581.353-.388.53-.93.53-1.626 0-.307-.046-.588-.138-.84a1.649 1.649 0 0 0-.42-.646 1.788 1.788 0 0 0-.703-.425 3.037 3.037 0 0 0-1.004-.148h-1.607v4.266zM68.23 10.995c0 .973-.168 1.878-.502 2.715A6.542 6.542 0 0 1 66.33 15.9a6.445 6.445 0 0 1-2.183 1.45c-.846.35-1.787.526-2.822.526-1.035 0-1.978-.175-2.83-.526a6.545 6.545 0 0 1-2.192-1.45 6.661 6.661 0 0 1-1.406-2.189 7.363 7.363 0 0 1-.493-2.715c0-.972.164-1.877.493-2.715a6.558 6.558 0 0 1 1.406-2.179 6.546 6.546 0 0 1 2.192-1.45c.852-.35 1.795-.526 2.83-.526 1.035 0 1.976.179 2.822.536.852.35 1.58.834 2.183 1.45a6.442 6.442 0 0 1 1.397 2.179c.335.837.502 1.739.502 2.705zm-3.16 0c0-.664-.085-1.262-.255-1.791a3.772 3.772 0 0 0-.74-1.358 3.13 3.13 0 0 0-1.169-.85c-.462-.196-.99-.295-1.58-.295-.596 0-1.129.099-1.598.296-.462.197-.855.48-1.178.85-.316.369-.56.821-.73 1.357a5.835 5.835 0 0 0-.256 1.791c0 .671.086 1.275.256 1.81.17.53.414.98.73 1.348.323.37.716.653 1.178.85.47.19 1.002.286 1.598.286.59 0 1.117-.095 1.58-.286a3.13 3.13 0 0 0 1.169-.85c.323-.369.57-.818.74-1.348.17-.535.255-1.139.255-1.81zM74.91 17.727h-3.104V4.273h3.105v13.454zM80.834 4.273c.133 0 .246.006.337.018a.77.77 0 0 1 .247.074.73.73 0 0 1 .21.139c.067.061.143.144.228.249l6.32 8.08a17.316 17.316 0 0 1-.055-.748 14.04 14.04 0 0 1-.019-.693v-7.12h2.721v13.455h-1.607c-.237 0-.438-.037-.602-.11-.165-.074-.323-.21-.475-.407l-6.274-8.015c.019.234.034.464.046.692.012.222.018.431.018.628v7.212h-2.72V4.273h1.625zM104.5 4.273v2.475h-3.744v10.98H97.67V6.747h-3.744V4.273H104.5z" fill="#E20074"/>
    <circle cx="11" cy="11" r="11" fill="#E20074"/>
    <path d="M10.201 16.497V7.055H7.333V5.5h7.541v1.555h-2.86v9.442h-1.813z" fill="#fff"/>
</svg>
