<svg width="30" height="30" viewBox="0 0 30 30" fill="none" xmlns="http://www.w3.org/2000/svg">
    <path d="M0 30h30V0H0v30z" fill="#E20074"/>
    <path d="M6.23 18.46v-4.325h4.327v4.326H6.23zM19.443 18.46v-4.325h4.327v4.326h-4.327z" fill="#fff"/>
    <path d="M23.538 4.326H6.462l-.232 7.569 1.155.173c.23-2.251.808-3.865 1.731-4.961.977-1.096 2.364-1.731 4.15-1.79v15.74c0 1.384-.173 2.251-.576 2.654-.346.347-.922.579-1.73.635-.233 0-.635.058-1.221.058v1.221h10.569v-1.22c-.408.02-.817 0-1.221-.06-.808-.055-1.384-.287-1.731-.634-.405-.403-.576-1.326-.576-2.654V5.371c1.787.056 3.174.635 4.15 1.787.977 1.096 1.558 2.713 1.731 4.964l1.152-.174-.288-7.617.013-.005z" fill="#fff"/>
</svg>
